<svg width="232" height="65" viewBox="0 0 232 65" xmlns="http://www.w3.org/2000/svg" xmlns:xlink="http://www.w3.org/1999/xlink">
    <defs>
        <path id="rk0negq72b" d="M0 .013h27.012v21.509H0z"/>
        <path id="ayeptrduad" d="M0 .353h45.198V49.62H0z"/>
        <path id="q0rsj62vwf" d="M0 63.984h231.885V.354H0z"/>
        <filter id="4qj8frcpha">
            <feColorMatrix in="SourceGraphic" values="0 0 0 0 1.000000 0 0 0 0 1.000000 0 0 0 0 1.000000 0 0 0 1.000000 0"/>
        </filter>
    </defs>
    <g transform="translate(-582 -278)" filter="url(#4qj8frcpha)" fill="none" fill-rule="evenodd">
        <path fill="#383F44" d="M682 314h-22v-29h22v5.303h-16.5v6.67h15.913v5.096h-15.914v6.545H682z"/>
        <g transform="translate(582 278)">
            <path d="M130.74 14.089c-1.023-1.693-3.837-3.303-7.078-3.303-4.177 0-6.182 1.736-6.182 3.938 0 2.581 3.07 3.302 6.652 3.725 6.225.762 12.023 2.37 12.023 9.44 0 6.603-5.884 9.44-12.534 9.44-6.099 0-10.788-1.862-13.005-7.28l4.69-2.414c1.321 3.26 4.775 4.698 8.398 4.698 3.54 0 6.866-1.227 6.866-4.444 0-2.794-2.942-3.937-6.908-4.36-6.096-.72-11.725-2.328-11.725-8.975 0-6.096 6.055-8.593 11.555-8.635 4.648 0 9.465 1.312 11.725 5.883l-4.477 2.287zM172.592 15.105l-9.72 12.868h-1.11l-9.508-12.911v21.547h-5.627V6.977h6.48l9.338 12.741 9.337-12.741h6.438v29.632h-5.628zM208.815 14.089c-1.023-1.693-3.837-3.303-7.077-3.303-4.178 0-6.182 1.736-6.182 3.938 0 2.581 3.069 3.302 6.65 3.725 6.226.762 12.024 2.37 12.024 9.44 0 6.603-5.883 9.44-12.534 9.44-6.098 0-10.787-1.862-13.005-7.28l4.69-2.414c1.322 3.26 4.775 4.698 8.4 4.698 3.539 0 6.864-1.227 6.864-4.444 0-2.794-2.942-3.937-6.907-4.36-6.097-.72-11.725-2.328-11.725-8.975 0-6.096 6.054-8.593 11.555-8.635 4.647 0 9.464 1.312 11.725 5.883l-4.478 2.287zM229.135 9.687h-.777V5.04h-.027l-1.867 4.647h-.505l-1.816-4.647h-.025v4.647h-.778v-5.42h1.31l1.568 3.9 1.62-3.9h1.297v5.42zM222.29 5.04h-1.815v4.647h-.777V5.04h-1.829v-.772h4.421v.772z" fill="#383F44"/>
            <path d="m14.925 27.401 9.594 5.5 5.96-3.362-8.455-4.847 6.864-3.935a1.109 1.109 0 0 1 1.102 0l15.5 8.886 6.675 3.826c.46.262.742.748.742 1.273v7.85a5.536 5.536 0 0 1-2.784 4.788L30.449 57.473v6.511l23.212-12.122a9.793 9.793 0 0 0 4.924-8.469V32.056a2.46 2.46 0 0 0-1.236-2.128l-21.125-12.11-4.218-2.418a5.17 5.17 0 0 0-5.132 0l-12.009 6.884a2.93 2.93 0 0 0-1.187 3.815c.262.553.714.997 1.247 1.302" fill="#4E5B75"/>
            <g transform="translate(0 42.462)">
                <mask id="0mmi1uovqc" fill="#fff">
                    <use xlink:href="#rk0negq72b"/>
                </mask>
                <path d="m2.86 8.072 24.152 13.45v-6.464L0 .013v3.21a5.553 5.553 0 0 0 2.86 4.849" fill="#4E5B75" mask="url(#0mmi1uovqc)"/>
            </g>
            <mask id="u0ikqroije" fill="#fff">
                <use xlink:href="#ayeptrduad"/>
            </mask>
            <path d="m43.66 36.936-9.593-5.5-5.961 3.363 8.456 4.847-6.864 3.935a1.11 1.11 0 0 1-1.102 0l-15.5-8.886-6.676-3.826a1.47 1.47 0 0 1-.74-1.274v-7.85a5.537 5.537 0 0 1 2.783-4.788L28.136 6.865V.353L4.925 12.475A9.794 9.794 0 0 0 0 20.945v11.337c0 .874.474 1.69 1.237 2.128l21.125 12.11 4.218 2.417a5.165 5.165 0 0 0 5.133 0l12.007-6.884a2.93 2.93 0 0 0 1.188-3.814c-.262-.554-.715-.997-1.247-1.303" fill="#9255D8" mask="url(#u0ikqroije)"/>
            <path d="M55.727 13.803 31.573.353v6.464l27.013 15.045v-3.21a5.554 5.554 0 0 0-2.86-4.849" fill="#9255D8"/>
            <path d="M76.421 52.897c0-3.072 1.882-4.915 4.28-4.915 1.186 0 2.114.564 2.694 1.19l-.812.948c-.49-.5-1.083-.846-1.856-.846-1.638 0-2.772 1.357-2.772 3.571 0 2.24 1.057 3.61 2.732 3.61.864 0 1.535-.384 2.102-.999l.799.935c-.76.87-1.727 1.357-2.952 1.357-2.385 0-4.215-1.766-4.215-4.851M84.876 47.38h1.47v2.702l-.052 1.394c.62-.589 1.328-1.114 2.295-1.114 1.508 0 2.178 1 2.178 2.79v4.43h-1.482v-4.25c0-1.216-.361-1.702-1.2-1.702-.657 0-1.107.333-1.74.96v4.991h-1.469v-10.2zM96.45 55.764v-1.728c-2.1.256-2.81.78-2.81 1.574 0 .691.478.973 1.11.973.617 0 1.12-.295 1.7-.819m-4.24-.052c0-1.51 1.289-2.29 4.24-2.61-.012-.82-.309-1.537-1.353-1.537-.748 0-1.444.333-2.05.718l-.554-.999c.735-.46 1.727-.921 2.862-.921 1.766 0 2.578 1.113 2.578 2.982v4.236H96.72l-.129-.806h-.038c-.645.55-1.406.972-2.256.972-1.225 0-2.088-.793-2.088-2.035M99.028 56.775l.696-.947c.632.499 1.25.806 2.01.806.851 0 1.251-.41 1.251-.947 0-.64-.8-.922-1.573-1.216-.94-.358-2.024-.858-2.024-2.047 0-1.178.954-2.061 2.514-2.061.954 0 1.727.384 2.308.831l-.697.91c-.49-.359-.992-.615-1.585-.615-.773 0-1.134.384-1.134.87 0 .601.735.832 1.508 1.113.992.372 2.088.807 2.088 2.138 0 1.177-.941 2.138-2.694 2.138-.98 0-1.985-.41-2.668-.973M110.048 53.434c0-1.216-.554-1.92-1.585-1.92-.89 0-1.676.679-1.818 1.92h3.403zm-4.846.64c0-2.29 1.572-3.711 3.235-3.711 1.882 0 2.887 1.343 2.887 3.34 0 .282-.025.576-.065.742h-4.6c.115 1.345.966 2.15 2.19 2.15.632 0 1.173-.192 1.69-.524l.515.934a4.324 4.324 0 0 1-2.398.743c-1.92 0-3.454-1.357-3.454-3.674zM114.83 56.366l.876-1.025c.683.678 1.61 1.114 2.526 1.114 1.148 0 1.792-.538 1.792-1.331 0-.858-.644-1.126-1.52-1.51l-1.316-.563c-.915-.384-1.934-1.102-1.934-2.47 0-1.485 1.315-2.599 3.12-2.599 1.108 0 2.153.461 2.874 1.19l-.786.947c-.593-.525-1.25-.844-2.088-.844-.967 0-1.599.46-1.599 1.216 0 .806.76 1.113 1.534 1.42l1.303.55c1.12.474 1.933 1.165 1.933 2.547 0 1.511-1.263 2.74-3.338 2.74a4.75 4.75 0 0 1-3.378-1.382M122.859 54.97v-4.428h1.482v4.249c0 1.216.348 1.69 1.187 1.69.657 0 1.107-.308 1.7-1.05v-4.889h1.483v7.039H127.5l-.116-1.062h-.04c-.644.742-1.34 1.228-2.32 1.228-1.508 0-2.165-.985-2.165-2.777M129.934 56.775l.696-.947c.633.499 1.25.806 2.012.806.85 0 1.25-.41 1.25-.947 0-.64-.8-.922-1.573-1.216-.94-.358-2.024-.858-2.024-2.047 0-1.178.954-2.061 2.514-2.061.954 0 1.727.384 2.308.831l-.697.91c-.49-.359-.992-.615-1.585-.615-.773 0-1.134.384-1.134.87 0 .601.735.832 1.508 1.113.992.372 2.088.807 2.088 2.138 0 1.177-.941 2.138-2.694 2.138-.98 0-1.985-.41-2.669-.973M136.56 55.277V51.72h-1.031v-1.101l1.095-.077.168-1.945h1.25v1.945h1.844v1.178h-1.844v3.57c0 .845.296 1.28 1.032 1.28.245 0 .553-.077.76-.166l.27 1.088c-.399.128-.876.256-1.391.256-1.6 0-2.153-.986-2.153-2.47M144.693 55.764v-1.728c-2.1.256-2.81.78-2.81 1.574 0 .691.477.973 1.109.973.618 0 1.121-.295 1.701-.819m-4.241-.052c0-1.51 1.29-2.29 4.241-2.61-.012-.82-.31-1.537-1.354-1.537-.747 0-1.443.333-2.05.718l-.553-.999c.734-.46 1.727-.921 2.862-.921 1.766 0 2.577 1.113 2.577 2.982v4.236h-1.211l-.13-.806h-.038c-.644.55-1.405.972-2.255.972-1.225 0-2.089-.793-2.089-2.035" fill="#383F44"/>
            <mask id="0ed4a78h6g" fill="#fff">
                <use xlink:href="#q0rsj62vwf"/>
            </mask>
            <path d="M148.018 57.581h1.47v-7.04h-1.47v7.04zm-.206-9.227c0-.526.4-.871.941-.871.541 0 .954.345.954.87 0 .512-.413.87-.954.87-.542 0-.941-.358-.941-.87zM151.46 50.542h1.21l.117.973h.039c.657-.628 1.379-1.153 2.346-1.153 1.508 0 2.178.999 2.178 2.79v4.43h-1.482v-4.25c0-1.216-.361-1.702-1.199-1.702-.657 0-1.108.332-1.74.96v4.991h-1.47v-7.039zM163.073 55.764v-1.728c-2.102.256-2.81.78-2.81 1.574 0 .691.477.973 1.108.973.618 0 1.122-.295 1.702-.819m-4.241-.052c0-1.51 1.289-2.29 4.24-2.61-.012-.82-.309-1.537-1.353-1.537-.748 0-1.444.333-2.05.718l-.554-.999c.735-.46 1.727-.921 2.862-.921 1.766 0 2.578 1.113 2.578 2.982v4.236h-1.212l-.129-.806h-.038c-.645.55-1.406.972-2.256.972-1.225 0-2.088-.793-2.088-2.035M171.219 53.972c0-1.472-.477-2.381-1.664-2.381-.554 0-1.095.282-1.688.858v3.443c.541.473 1.108.64 1.547.64 1.031 0 1.805-.909 1.805-2.56m-3.48 2.88h-.04l-.141.73h-1.16V47.38h1.469v2.7l-.039 1.203c.606-.524 1.366-.921 2.114-.921 1.792 0 2.81 1.42 2.81 3.583 0 2.42-1.456 3.801-3.055 3.801-.644 0-1.353-.32-1.959-.895M174.246 57.581h1.47v-7.04h-1.47v7.04zm-.206-9.227c0-.526.4-.871.941-.871.542 0 .954.345.954.87 0 .512-.412.87-.954.87-.541 0-.94-.358-.94-.87zM177.688 55.93V47.38h1.47v8.626c0 .396.18.538.36.538.064 0 .116 0 .245-.026l.193 1.113c-.18.064-.438.116-.798.116-1.07 0-1.47-.679-1.47-1.818M181.27 57.581h1.47v-7.04h-1.47v7.04zm-.206-9.227c0-.526.4-.871.942-.871.54 0 .954.345.954.87 0 .512-.413.87-.954.87-.542 0-.942-.358-.942-.87zM184.944 55.277V51.72h-1.031v-1.101l1.095-.077.168-1.945h1.25v1.945h1.844v1.178h-1.844v3.57c0 .845.297 1.28 1.032 1.28.245 0 .554-.077.76-.166l.271 1.088c-.4.128-.876.256-1.392.256-1.599 0-2.153-.986-2.153-2.47M192.678 58.004c-.554 1.51-1.302 2.52-2.797 2.52-.362 0-.645-.05-.89-.14l.283-1.152c.13.039.336.103.516.103.774 0 1.225-.564 1.483-1.319l.141-.486-2.81-6.988h1.521l1.316 3.622c.205.627.424 1.331.644 1.984h.065l.554-1.984 1.133-3.622h1.445l-2.604 7.462zM198.567 52.897c0-3.072 1.882-4.915 4.28-4.915 1.186 0 2.114.564 2.694 1.19l-.812.948c-.49-.5-1.083-.846-1.856-.846-1.638 0-2.772 1.357-2.772 3.571 0 2.24 1.057 3.61 2.733 3.61.864 0 1.534-.384 2.101-.999l.8.935c-.76.87-1.728 1.357-2.953 1.357-2.384 0-4.215-1.766-4.215-4.851M207.022 55.93V47.38h1.47v8.626c0 .396.18.538.36.538.065 0 .117 0 .245-.026l.194 1.113c-.18.064-.438.116-.799.116-1.07 0-1.47-.679-1.47-1.818M215.259 54.074c0-1.497-.696-2.495-1.818-2.495-1.108 0-1.805.998-1.805 2.495 0 1.485.697 2.47 1.805 2.47 1.122 0 1.818-.985 1.818-2.47m-5.156 0c0-2.355 1.585-3.712 3.338-3.712 1.754 0 3.34 1.357 3.34 3.712 0 2.33-1.586 3.673-3.34 3.673-1.753 0-3.338-1.343-3.338-3.673M218.17 54.97v-4.428h1.483v4.249c0 1.216.349 1.69 1.186 1.69.658 0 1.109-.308 1.702-1.05v-4.889h1.482v7.039h-1.212l-.115-1.062h-.04c-.643.742-1.34 1.228-2.32 1.228-1.508 0-2.165-.985-2.165-2.777M230.403 55.674v-3.443c-.528-.473-1.031-.64-1.56-.64-.992 0-1.792.935-1.792 2.457 0 1.6.632 2.484 1.74 2.484.594 0 1.096-.27 1.612-.858m-4.886-1.6c0-2.29 1.457-3.712 3.043-3.712.812 0 1.327.307 1.907.794l-.064-1.165v-2.61h1.482v10.2h-1.211l-.13-.793h-.038c-.528.537-1.263.96-2.063.96-1.778 0-2.926-1.344-2.926-3.674" fill="#383F44" mask="url(#0ed4a78h6g)"/>
        </g>
    </g>
</svg>
