<svg width="121" height="121" viewBox="0 0 121 121" fill="none" xmlns="http://www.w3.org/2000/svg">
<path fill-rule="evenodd" clip-rule="evenodd" d="M75.789 33.7578C65.676 33.7578 56.685 38.5428 50.939 45.9658C49.222 45.6668 47.458 45.5028 45.655 45.5028C28.725 45.5028 15 59.2268 15 76.1578C15 93.0878 28.725 106.813 45.655 106.813C50.268 106.813 54.639 105.788 58.563 103.963C63.107 106.776 68.451 108.407 74.159 108.407H105.571V63.5398C105.571 47.1598 92.169 33.7578 75.789 33.7578Z" fill="#5E86FE"/>
<mask id="mask0_314_42596" style="mask-type:luminance" maskUnits="userSpaceOnUse" x="44" y="45" width="33" height="59">
<path fill-rule="evenodd" clip-rule="evenodd" d="M44.377 65.1688V78.6238C44.377 89.2958 50.069 98.7008 58.564 103.962C69.042 99.0878 76.31 88.4748 76.31 76.1568C76.31 61.0298 65.35 48.4708 50.94 45.9648C46.83 51.2758 44.377 57.9338 44.377 65.1688Z" fill="white"/>
</mask>
<g mask="url(#mask0_314_42596)">
<path fill-rule="evenodd" clip-rule="evenodd" d="M44.377 65.1688V78.6238C44.377 89.2958 50.069 98.7008 58.564 103.962C69.042 99.0878 76.31 88.4748 76.31 76.1568C76.31 61.0298 65.35 48.4708 50.94 45.9648C46.83 51.2758 44.377 57.9338 44.377 65.1688Z" fill="url(#paint0_linear_314_42596)"/>
</g>
<path fill-rule="evenodd" clip-rule="evenodd" d="M76.3109 76.1578C76.3109 61.0308 65.3509 48.4708 50.9399 45.9658C46.8299 51.2768 44.3779 57.9348 44.3779 65.1708V78.6248C44.3779 89.2978 50.0689 98.7018 58.5639 103.963C69.0429 99.0898 76.3109 88.4748 76.3109 76.1578Z" fill="#436CF0"/>
<path fill-rule="evenodd" clip-rule="evenodd" d="M75.2948 80.8014C66.8668 80.8014 60.0098 73.9444 60.0098 65.5164C60.0098 57.0884 66.8668 50.2314 75.2948 50.2314C83.7228 50.2314 90.5798 57.0884 90.5798 65.5164C90.5798 73.9444 83.7228 80.8014 75.2948 80.8014ZM105.572 83.6714L93.5778 76.3604C95.4718 73.1794 96.5798 69.4794 96.5798 65.5164C96.5798 53.7804 87.0318 44.2314 75.2948 44.2314C63.5588 44.2314 54.0098 53.7804 54.0098 65.5164C54.0098 77.2534 63.5588 86.8014 75.2948 86.8014C80.8908 86.8014 85.9738 84.6144 89.7778 81.0704L105.572 90.6974V83.6714Z" fill="white"/>
<path fill-rule="evenodd" clip-rule="evenodd" d="M70.4188 39H49.1808C41.7908 39 35.7998 33.009 35.7998 25.619V25.381C35.7998 17.991 41.7908 12 49.1808 12H70.4188C77.8088 12 83.7998 17.991 83.7998 25.381V25.619C83.7998 33.009 77.8088 39 70.4188 39Z" fill="#6B597F"/>
<path fill-rule="evenodd" clip-rule="evenodd" d="M53.78 30.653C52.44 31.975 50.709 32.589 48.828 32.589C43.988 32.589 41.941 29.257 41.922 25.869C41.904 22.462 44.118 19 48.828 19C50.597 19 52.272 19.67 53.613 20.991L51.974 22.574C51.118 21.736 49.964 21.345 48.828 21.345C45.682 21.345 44.323 23.691 44.342 25.869C44.361 28.028 45.608 30.281 48.828 30.281C49.964 30.281 51.248 29.815 52.105 28.959L53.78 30.653Z" fill="white"/>
<path fill-rule="evenodd" clip-rule="evenodd" d="M55.1377 32.2903V19.2783H64.5017V21.6423H57.5957V25.1983H64.1297V27.4693H57.5957V32.2903H55.1377Z" fill="white"/>
<path fill-rule="evenodd" clip-rule="evenodd" d="M69.21 26.2032H72.896C76.042 26.2032 76.023 21.5862 72.896 21.5862H69.21V26.2032ZM72.896 28.4552H69.21V32.2902H66.752V19.2602C68.8 19.2602 70.848 19.2412 72.896 19.2412C79.262 19.2412 79.281 28.4552 72.896 28.4552Z" fill="white"/>
<defs>
<linearGradient id="paint0_linear_314_42596" x1="15.0004" y1="130.639" x2="76.3105" y2="130.639" gradientUnits="userSpaceOnUse">
<stop stop-color="#5D85FD"/>
<stop offset="1" stop-color="#7C9AFD"/>
</linearGradient>
</defs>
</svg>
