<svg width="40" height="40" viewBox="0 0 40 40" fill="none" xmlns="http://www.w3.org/2000/svg">
<path d="M27.4365 14.3266C24.9365 11.5833 21.3365 9.86328 17.3332 9.86328C9.7865 9.86328 3.6665 15.9833 3.6665 23.5299C3.6665 31.0766 9.7865 37.1966 17.3332 37.1966C21.6032 37.1966 25.4165 35.2366 27.9232 32.1666L17.3332 23.5299L27.4365 14.3266Z" fill="#BEE02D"/>
<path d="M30.9999 23.5298C30.9999 19.9832 29.6499 16.7565 27.4365 14.3265L29.6165 12.3398C32.3065 15.2932 33.9499 19.2198 33.9499 23.5298H30.9999Z" fill="#A6CE00"/>
<path d="M17.333 23.53L27.4363 14.3267C29.6497 16.7567 30.9997 19.9833 30.9997 23.53H17.333Z" fill="#BEE02D"/>
<path d="M24.0034 17.4535C22.3534 15.6435 19.9767 14.5068 17.3334 14.5068C12.3501 14.5068 8.31006 18.5468 8.31006 23.5302C8.31006 28.5135 12.3501 32.5535 17.3334 32.5535C20.1534 32.5535 22.6701 31.2602 24.3267 29.2335C25.5967 27.6802 26.3567 25.6935 26.3567 23.5302C26.3567 21.1902 25.4667 19.0568 24.0034 17.4535Z" fill="#A6CE00"/>
<path d="M17.333 23.5298L27.923 32.1665C29.8463 29.8131 30.9997 26.8065 30.9997 23.5298H17.333Z" fill="#A6CE00"/>
<path d="M22.9033 24.5298H19.0933C18.5399 24.5298 18.0933 24.0831 18.0933 23.5298C18.0933 22.9765 18.5399 22.5298 19.0933 22.5298H22.9033C23.4566 22.5298 23.9033 22.9765 23.9033 23.5298C23.9033 24.0831 23.4566 24.5298 22.9033 24.5298Z" fill="white"/>
<path d="M17.3599 30.1269C13.7232 30.1269 10.7632 27.1669 10.7632 23.5303C10.7632 19.8936 13.7232 16.9336 17.3599 16.9336C18.9332 16.9336 20.4565 17.4969 21.6498 18.5203C22.0698 18.8803 22.1165 19.5103 21.7565 19.9303C21.3965 20.3503 20.7665 20.3969 20.3465 20.0369C19.5165 19.3236 18.4532 18.9303 17.3565 18.9303C14.8232 18.9303 12.7599 20.9903 12.7599 23.5269C12.7599 26.0636 14.8198 28.1236 17.3565 28.1236C18.4532 28.1236 19.5132 27.7303 20.3465 27.0169C20.7665 26.6569 21.3965 26.7069 21.7565 27.1236C22.1165 27.5436 22.0665 28.1736 21.6498 28.5336C20.4565 29.5569 18.9332 30.1203 17.3599 30.1203V30.1269Z" fill="white"/>
<path d="M31 23.5298C31 26.8065 29.8467 29.8131 27.9233 32.1665L32.2267 35.6765C34.93 32.3665 36.5533 28.1365 36.5533 23.5298H31Z" fill="#BEE02D"/>
<path d="M23.6499 4H16.5699C14.1067 4 12.1099 5.99681 12.1099 8.46V8.54C12.1099 11.0032 14.1067 13 16.5699 13H23.6499C26.1131 13 28.1099 11.0032 28.1099 8.54V8.46C28.1099 5.99681 26.1131 4 23.6499 4Z" fill="#6B597F"/>
<path d="M17.27 10.6831H14V6.31641H17.27V7.11641H14.8167V8.11974H17.1833V8.88641H14.8167V9.87307H17.27V10.6831Z" fill="white"/>
<path d="M21.0966 6.31006H21.92V10.6834H21.4066V10.6901L19.11 7.73673V10.6834H18.2866V6.31673H18.9533L21.0933 9.02673V6.31006H21.0966Z" fill="white"/>
<path d="M26.1196 10.6831H22.8496V6.31641H26.1196V7.11641H23.6663V8.11974H26.0329V8.88641H23.6663V9.87307H26.1196V10.6831Z" fill="white"/>
</svg>
