<svg width="121" height="121" viewBox="0 0 121 121" fill="none" xmlns="http://www.w3.org/2000/svg">
<path fill-rule="evenodd" clip-rule="evenodd" d="M84.2072 75.124C84.2242 70.275 83.0212 65.695 80.8962 61.668C76.0762 52.535 66.4962 46.256 55.5012 46.218L43.6992 46.178L42.4882 46.173C25.7082 46.115 12.0582 59.671 12.0002 76.45C11.9452 92.293 24.8622 105.301 40.7052 105.356L81.9522 105.499C86.8132 105.499 84.1492 99.296 84.1492 91.941L84.2072 75.124Z" fill="#FFBC40"/>
<path fill-rule="evenodd" clip-rule="evenodd" d="M94.6472 65.5629C94.6472 83.0379 80.4812 97.2039 63.0062 97.2039C45.5312 97.2039 31.3652 83.0379 31.3652 65.5629C31.3652 48.0879 45.5312 33.9219 63.0062 33.9219C80.4812 33.9219 94.6472 48.0879 94.6472 65.5629Z" fill="#F9A517"/>
<path fill-rule="evenodd" clip-rule="evenodd" d="M108 83.7774C108 96.4584 97.7201 106.737 85.0401 106.737C72.3591 106.737 62.0791 96.4584 62.0791 83.7774C62.0791 71.0964 72.3591 60.8174 85.0401 60.8174C97.7201 60.8174 108 71.0964 108 83.7774Z" fill="#F9A517"/>
<path fill-rule="evenodd" clip-rule="evenodd" d="M62.0791 83.7774C62.0791 88.7174 63.6441 93.2884 66.2991 97.0344C82.2261 95.3874 94.6481 81.9264 94.6481 65.5634C94.6481 64.6554 94.6001 63.7584 94.5251 62.8694C91.6331 61.5554 88.4231 60.8174 85.0391 60.8174C72.3591 60.8174 62.0791 71.0964 62.0791 83.7774Z" fill="#FFBC40"/>
<path fill-rule="evenodd" clip-rule="evenodd" d="M85.6631 101.777C75.7381 101.777 67.6631 93.7023 67.6631 83.7773C67.6631 73.8523 75.7381 65.7773 85.6631 65.7773C87.3201 65.7773 88.6631 67.1203 88.6631 68.7773C88.6631 70.4343 87.3201 71.7773 85.6631 71.7773C79.0461 71.7773 73.6631 77.1603 73.6631 83.7773C73.6631 90.3943 79.0461 95.7773 85.6631 95.7773C91.2461 95.7773 95.9511 91.9443 97.2851 86.7723L90.7511 86.7613C89.0951 86.7583 87.7531 85.4133 87.7561 83.7563C87.7591 82.1013 89.1011 80.7613 90.7561 80.7613H90.7611L103.663 80.7823V83.7773C103.663 93.7023 95.5881 101.777 85.6631 101.777Z" fill="white"/>
<path fill-rule="evenodd" clip-rule="evenodd" d="M70.618 39.999H49.38C41.99 39.999 35.999 34.008 35.999 26.618V26.38C35.999 18.99 41.99 12.999 49.38 12.999H70.618C78.008 12.999 83.999 18.99 83.999 26.38V26.618C83.999 34.008 78.008 39.999 70.618 39.999Z" fill="#6B597F"/>
<path fill-rule="evenodd" clip-rule="evenodd" d="M50.0047 23.4417C49.1297 22.6037 47.8267 22.1387 46.6917 22.1387C43.8987 22.1387 42.2047 24.2607 42.2047 26.9417C42.2047 29.0827 43.4517 31.2977 46.6917 31.2977C47.7147 31.2977 48.6087 31.0737 49.6327 30.2547V27.9467H46.2997V25.7507H51.8847V31.2417C50.6007 32.7127 48.9807 33.5877 46.6917 33.5877C41.7957 33.5877 39.8037 30.3667 39.8037 26.9417C39.8037 23.2747 42.0927 19.8857 46.6917 19.8857C48.4417 19.8857 50.1907 20.5567 51.5307 21.8787L50.0047 23.4417Z" fill="white"/>
<path fill-rule="evenodd" clip-rule="evenodd" d="M63.3317 33.3083V28.0403H56.9277V33.3083H54.4707V20.2773H56.9277V25.7693H63.3317V20.2773H65.7697V33.3083H63.3317Z" fill="white"/>
<path fill-rule="evenodd" clip-rule="evenodd" d="M78.3162 23.4417C77.4412 22.6037 76.1382 22.1387 75.0032 22.1387C72.2102 22.1387 70.5162 24.2607 70.5162 26.9417C70.5162 29.0827 71.7632 31.2977 75.0032 31.2977C76.0262 31.2977 76.9202 31.0737 77.9442 30.2547V27.9467H74.6112V25.7507H80.1962V31.2417C78.9122 32.7127 77.2922 33.5877 75.0032 33.5877C70.1072 33.5877 68.1152 30.3667 68.1152 26.9417C68.1152 23.2747 70.4042 19.8857 75.0032 19.8857C76.7532 19.8857 78.5022 20.5567 79.8422 21.8787L78.3162 23.4417Z" fill="white"/>
</svg>
