<svg width="48" height="48" viewBox="0 0 48 48" fill="none" xmlns="http://www.w3.org/2000/svg">
<path fill-rule="evenodd" clip-rule="evenodd" d="M30.3156 9.2002C26.2704 9.2002 22.674 11.1142 20.3756 14.0834C19.6888 13.9638 18.9832 13.8982 18.262 13.8982C11.49 13.8982 6 19.3878 6 26.1602C6 32.9322 11.49 38.4222 18.262 38.4222C20.1072 38.4222 21.8556 38.0122 23.4252 37.2822C25.2428 38.4074 27.3804 39.0598 29.6636 39.0598H42.2284V21.113C42.2284 14.561 36.8676 9.2002 30.3156 9.2002Z" fill="#5E86FE"/>
<mask id="mask0_721_53579" style="mask-type:luminance" maskUnits="userSpaceOnUse" x="17" y="14" width="14" height="24">
<path fill-rule="evenodd" clip-rule="evenodd" d="M17.751 21.7646V27.1466C17.751 31.4154 20.0278 35.1774 23.4258 37.2818C27.617 35.3322 30.5242 31.087 30.5242 26.1598C30.5242 20.109 26.1402 15.0854 20.3762 14.083C18.7322 16.2074 17.751 18.8706 17.751 21.7646Z" fill="white"/>
</mask>
<g mask="url(#mask0_721_53579)">
<path fill-rule="evenodd" clip-rule="evenodd" d="M17.751 21.7646V27.1466C17.751 31.4154 20.0278 35.1774 23.4258 37.2818C27.617 35.3322 30.5242 31.087 30.5242 26.1598C30.5242 20.109 26.1402 15.0854 20.3762 14.083C18.7322 16.2074 17.751 18.8706 17.751 21.7646Z" fill="url(#paint0_linear_721_53579)"/>
</g>
<path fill-rule="evenodd" clip-rule="evenodd" d="M30.5242 26.1603C30.5242 20.1095 26.1402 15.0855 20.3758 14.0835C18.7318 16.2079 17.751 18.8711 17.751 21.7655V27.1471C17.751 31.4163 20.0274 35.1779 23.4254 37.2823C27.617 35.3331 30.5242 31.0871 30.5242 26.1603Z" fill="#436CF0"/>
<path fill-rule="evenodd" clip-rule="evenodd" d="M30.118 28.0176C26.7468 28.0176 24.004 25.2748 24.004 21.9036C24.004 18.5324 26.7468 15.7896 30.118 15.7896C33.4892 15.7896 36.232 18.5324 36.232 21.9036C36.232 25.2748 33.4892 28.0176 30.118 28.0176ZM42.2288 29.1656L37.4312 26.2412C38.1888 24.9688 38.632 23.4888 38.632 21.9036C38.632 17.2092 34.8128 13.3896 30.118 13.3896C25.4236 13.3896 21.604 17.2092 21.604 21.9036C21.604 26.5984 25.4236 30.4176 30.118 30.4176C32.3564 30.4176 34.3896 29.5428 35.9112 28.1252L42.2288 31.976V29.1656Z" fill="white"/>
<defs>
<linearGradient id="paint0_linear_721_53579" x1="6.00035" y1="47.9528" x2="30.5244" y2="47.9528" gradientUnits="userSpaceOnUse">
<stop stop-color="#5D85FD"/>
<stop offset="1" stop-color="#7C9AFD"/>
</linearGradient>
</defs>
</svg>
