<svg width="48" height="48" viewBox="0 0 48 48" fill="none" xmlns="http://www.w3.org/2000/svg">
<path fill-rule="evenodd" clip-rule="evenodd" d="M19.312 31.3451C19.312 37.7835 24.5212 43.0027 30.9468 43.0027C37.3724 43.0027 42.5816 37.7835 42.5816 31.3451C42.5816 24.9067 37.3724 19.6875 30.9468 19.6875C24.5212 19.6875 19.312 24.9067 19.312 31.3451Z" fill="#3177CF"/>
<path fill-rule="evenodd" clip-rule="evenodd" d="M19.312 16.4574C19.312 22.8958 24.5212 28.115 30.9468 28.115C37.3724 28.115 42.5816 22.8958 42.5816 16.4574C42.5816 10.019 37.3724 4.7998 30.9468 4.7998C24.5212 4.7998 19.312 10.019 19.312 16.4574Z" fill="#3177CF"/>
<path fill-rule="evenodd" clip-rule="evenodd" d="M5.6001 25.036C5.6001 31.4744 10.8093 36.6936 17.2349 36.6936C23.6605 36.6936 28.8697 31.4744 28.8697 25.036C28.8697 18.5976 23.6605 13.3784 17.2349 13.3784C10.8093 13.3784 5.6001 18.5976 5.6001 25.036Z" fill="#3177CF"/>
<path fill-rule="evenodd" clip-rule="evenodd" d="M28.5241 27.8597C25.9189 27.3065 23.6353 25.8809 21.9937 23.9009C20.3197 25.9201 19.3125 28.5145 19.3125 31.3449C19.3125 33.0993 19.7017 34.7621 20.3945 36.2545C24.3925 35.1265 27.5173 31.9137 28.5241 27.8597Z" fill="#0054C5"/>
<path fill-rule="evenodd" clip-rule="evenodd" d="M21.9936 23.9014C23.4784 22.1106 25.4888 20.775 27.7872 20.1262C26.2664 16.8506 23.2728 14.4014 19.6576 13.6338C19.4332 14.5382 19.312 15.4838 19.312 16.4578C19.312 19.2878 20.3192 21.8822 21.9936 23.9014Z" fill="#0054C5"/>
<path fill-rule="evenodd" clip-rule="evenodd" d="M27.7873 20.126C25.4889 20.7748 23.4785 22.11 21.9937 23.9012C23.6353 25.8808 25.9185 27.3064 28.5241 27.8596C28.7485 26.9552 28.8697 26.01 28.8697 25.036C28.8697 23.2812 28.4801 21.6188 27.7873 20.126Z" fill="#3177CF"/>
<path fill-rule="evenodd" clip-rule="evenodd" d="M30.9467 19.6875C29.8511 19.6875 28.7923 19.8427 27.7871 20.1263C28.4799 21.6187 28.8695 23.2815 28.8695 25.0359C28.8695 26.0099 28.7483 26.9555 28.5239 27.8599C29.3055 28.0259 30.1155 28.1147 30.9467 28.1147C34.5475 28.1147 37.7659 26.4751 39.8999 23.9011C37.7659 21.3271 34.5475 19.6875 30.9467 19.6875Z" fill="#0054C5"/>
<path fill-rule="evenodd" clip-rule="evenodd" d="M30.9466 34.1861C29.2026 34.1861 27.7838 32.7633 27.7838 31.0145C27.7838 29.2657 29.2026 27.8433 30.9466 27.8433C32.6906 27.8433 34.1098 29.2657 34.1098 31.0145C34.1098 32.7633 32.6906 34.1861 30.9466 34.1861ZM17.2346 27.8773C15.4902 27.8773 14.0714 26.4545 14.0714 24.7057C14.0714 22.9569 15.4902 21.5345 17.2346 21.5345C18.9786 21.5345 20.3978 22.9569 20.3978 24.7057C20.3978 26.4545 18.9786 27.8773 17.2346 27.8773ZM30.9466 12.9557C32.6906 12.9557 34.1098 14.3781 34.1098 16.1273C34.1098 17.8761 32.6906 19.2985 30.9466 19.2985C29.2026 19.2985 27.7838 17.8761 27.7838 16.1273C27.7838 14.3781 29.2026 12.9557 30.9466 12.9557ZM30.9466 25.4433C29.1846 25.4433 27.6142 26.2701 26.5946 27.5545L22.7694 25.2689C22.7878 25.0837 22.7978 24.8957 22.7978 24.7057C22.7978 24.1521 22.7142 23.6185 22.5634 23.1133L26.765 19.7897C27.7854 20.9569 29.2794 21.6985 30.9466 21.6985C34.0142 21.6985 36.5098 19.1993 36.5098 16.1273C36.5098 13.0549 34.0142 10.5557 30.9466 10.5557C27.879 10.5557 25.3838 13.0549 25.3838 16.1273C25.3838 16.6557 25.4622 17.1653 25.6002 17.6505L21.3722 20.9949C20.353 19.8561 18.8782 19.1345 17.2346 19.1345C14.167 19.1345 11.6714 21.6337 11.6714 24.7057C11.6714 27.7777 14.167 30.2773 17.2346 30.2773C19.2454 30.2773 21.005 29.1997 21.9826 27.5945L25.5414 29.7209C25.4418 30.1369 25.3838 30.5685 25.3838 31.0145C25.3838 34.0865 27.879 36.5861 30.9466 36.5861C34.0142 36.5861 36.5098 34.0865 36.5098 31.0145C36.5098 27.9425 34.0142 25.4433 30.9466 25.4433Z" fill="white"/>
</svg>
