<svg width="48" height="48" viewBox="0 0 48 48" fill="none" xmlns="http://www.w3.org/2000/svg">
<path fill-rule="evenodd" clip-rule="evenodd" d="M40.7861 7.6001L35.7421 7.6177L35.7817 27.1913C35.5509 34.4781 29.5365 40.3809 22.1909 40.4065L7.23975 40.4601V40.4777L27.2349 40.4065C34.5801 40.3809 40.5945 34.4781 40.8253 27.1913L40.7861 7.6001Z" fill="#36B396"/>
<path fill-rule="evenodd" clip-rule="evenodd" d="M35.7814 27.1912L35.7422 7.61719L20.791 7.67119C13.4454 7.69679 7.431 13.5996 7.2002 20.8864L7.2398 40.46L22.1906 40.406C29.5362 40.3808 35.5506 34.478 35.7814 27.1912Z" fill="#1BCCA4"/>
<path fill-rule="evenodd" clip-rule="evenodd" d="M32.4674 27.901H23.7674C23.1046 27.901 22.5674 27.3638 22.5674 26.701C22.5674 26.0382 23.1046 25.501 23.7674 25.501H32.4674C33.1302 25.501 33.6674 26.0382 33.6674 26.701C33.6674 27.3638 33.1302 27.901 32.4674 27.901Z" fill="white"/>
<path fill-rule="evenodd" clip-rule="evenodd" d="M32.4674 33.8937H23.7674C23.1046 33.8937 22.5674 33.3565 22.5674 32.6937C22.5674 32.0309 23.1046 31.4937 23.7674 31.4937H32.4674C33.1302 31.4937 33.6674 32.0309 33.6674 32.6937C33.6674 33.3565 33.1302 33.8937 32.4674 33.8937Z" fill="white"/>
<path fill-rule="evenodd" clip-rule="evenodd" d="M9.50049 29.6973C9.50049 34.2145 13.1625 37.8765 17.6797 37.8765C22.1973 37.8765 25.8593 34.2145 25.8593 29.6973C25.8593 25.1801 22.1973 21.5181 17.6797 21.5181C13.1625 21.5181 9.50049 25.1801 9.50049 29.6973Z" fill="#36B396"/>
<path fill-rule="evenodd" clip-rule="evenodd" d="M16.4903 34.1017L12.6075 30.2189C12.1387 29.7505 12.1387 28.9905 12.6075 28.5221C13.0763 28.0533 13.8355 28.0533 14.3043 28.5217L16.4903 30.7077L21.0559 26.1421C21.5247 25.6733 22.2839 25.6733 22.7527 26.1421C23.2215 26.6105 23.2215 27.3705 22.7527 27.8389L16.4903 34.1017Z" fill="white"/>
</svg>
