<svg width="48" height="48" viewBox="0 0 48 48" fill="none" xmlns="http://www.w3.org/2000/svg">
<path fill-rule="evenodd" clip-rule="evenodd" d="M30.9883 9.60017C26.9235 9.58617 23.3243 11.6906 21.2355 14.8678L17.0967 14.8534C10.3287 14.8298 4.82347 20.2974 4.79987 27.065C4.77787 33.455 9.98787 38.7014 16.3779 38.7234H30.3035H31.5231C37.9131 38.7454 43.1595 33.5354 43.1815 27.1454L43.1999 21.8966C43.2235 15.129 37.7559 9.62377 30.9883 9.60017Z" fill="#B073F5"/>
<path fill-rule="evenodd" clip-rule="evenodd" d="M33.9233 26.5301C33.9453 20.1401 28.7353 14.8937 22.3453 14.8717L21.2357 14.8677C20.0405 16.6853 19.3381 18.8525 19.3301 21.1781V38.7233H31.5233C32.3453 38.7261 33.1477 38.6409 33.9233 38.4793V26.5301Z" fill="#A762F5"/>
<path fill-rule="evenodd" clip-rule="evenodd" d="M27.9017 32.1124L27.8185 32.1152C27.3909 32.1456 27.0833 31.9396 26.9033 31.762C26.6273 31.4892 26.4525 31.0936 26.4233 30.6768C26.3689 29.8944 26.9613 29.2136 27.7433 29.1592C28.2009 29.1292 28.6493 29.3204 28.9417 29.676C29.3625 30.1876 30.1189 30.2616 30.6309 29.84C31.1425 29.4192 31.2161 28.6628 30.7949 28.1512C30.0105 27.1976 28.8089 26.6812 27.5769 26.7652C25.4745 26.9116 23.8833 28.7408 24.0293 30.8432C24.0993 31.8492 24.5209 32.7816 25.2165 33.4692C25.9065 34.1512 26.7917 34.5184 27.7317 34.5184C27.8009 34.5184 27.8697 34.5164 27.9393 34.5124H40.4969C41.1041 33.782 41.6229 32.9764 42.0389 32.1124H27.9017Z" fill="white"/>
<path fill-rule="evenodd" clip-rule="evenodd" d="M35.6111 24.831C35.1807 24.861 34.8759 24.6554 34.6959 24.4774C34.4199 24.2046 34.2451 23.809 34.2159 23.3922C34.1895 23.0134 34.3123 22.6466 34.5615 22.3602C34.8111 22.0734 35.1567 21.9014 35.5359 21.875C35.9939 21.8438 36.4419 22.0362 36.7339 22.3914C37.1551 22.9038 37.9111 22.977 38.4231 22.5562C38.9351 22.135 39.0087 21.379 38.5875 20.867C37.8031 19.9134 36.6015 19.3946 35.3695 19.481C34.3511 19.5514 33.4211 20.0146 32.7511 20.785C32.0811 21.5554 31.7511 22.5402 31.8219 23.5586C31.9663 25.635 33.6067 27.2338 35.5347 27.2334C35.5999 27.2334 35.6659 27.2318 35.7315 27.2282H43.1791C43.1795 27.2006 43.1815 27.173 43.1815 27.1454L43.1895 24.8282H35.6943L35.6111 24.831Z" fill="white"/>
</svg>
