<svg width="48" height="48" viewBox="0 0 48 48" fill="none" xmlns="http://www.w3.org/2000/svg">
<path fill-rule="evenodd" clip-rule="evenodd" d="M22.0491 7.2526L7.23665 7.2002L7.20025 17.9278C7.18145 23.4194 11.6595 27.9286 17.1515 27.9478L31.9635 28.0002L31.9999 17.273C32.0187 11.781 27.5407 7.2722 22.0491 7.2526Z" fill="#02BBB6"/>
<path fill-rule="evenodd" clip-rule="evenodd" d="M26.0895 19.9591L40.9019 19.9067L40.9383 30.6343C40.9571 36.1259 36.4791 40.6351 30.9875 40.6543L16.1751 40.7067L16.1387 29.9795C16.1199 24.4875 20.5979 19.9787 26.0895 19.9591Z" fill="#1EBAB6"/>
<path fill-rule="evenodd" clip-rule="evenodd" d="M16.3496 27.9096C16.6144 27.932 16.8812 27.9468 17.1512 27.9476L31.9632 28L31.9908 19.938L26.0892 19.9588C21.3064 19.976 17.294 23.3984 16.3496 27.9096Z" fill="#02A19B"/>
<path fill-rule="evenodd" clip-rule="evenodd" d="M26.4542 18.1509H13.679C12.9734 18.1509 12.4014 17.5789 12.4014 16.8733C12.4014 16.1677 12.9734 15.5957 13.679 15.5957H26.4542C27.1598 15.5957 27.7318 16.1677 27.7318 16.8733C27.7318 17.5789 27.1598 18.1509 26.4542 18.1509Z" fill="white"/>
<path fill-rule="evenodd" clip-rule="evenodd" d="M25.3581 29.8399L16.1689 39.0291L16.1749 40.7063L18.1117 40.6995L27.1649 31.6467C27.6637 31.1479 27.6637 30.3387 27.1649 29.8399C26.6661 29.3411 25.8569 29.3411 25.3581 29.8399Z" fill="white"/>
</svg>
