<svg width="48" height="48" viewBox="0 0 48 48" fill="none" xmlns="http://www.w3.org/2000/svg">
<path fill-rule="evenodd" clip-rule="evenodd" d="M28.8025 8C24.4309 8 20.5445 10.068 18.0609 13.2772C16.2841 15.5724 15.2241 18.4508 15.2241 21.5784V27.3944C15.2241 32.0076 17.6845 36.0724 21.3565 38.3468C23.3205 39.5628 25.6305 40.268 28.0977 40.268H41.6761V20.8736C41.6761 13.7932 35.8829 8 28.8025 8Z" fill="#7D62F5"/>
<path fill-rule="evenodd" clip-rule="evenodd" d="M32.502 27.0169C32.502 19.6985 26.5692 13.7661 19.2512 13.7661C11.9328 13.7661 6 19.6985 6 27.0169C6 27.7209 6.056 28.4117 6.162 29.0861C6.6804 32.9901 8.9664 36.3549 12.1824 38.3465C14.1464 39.5629 16.4564 40.2677 18.9236 40.2677H32.502V32.3113C32.502 31.4141 32.4084 30.5381 32.2316 29.6913C32.4084 28.8277 32.502 27.9333 32.502 27.0169Z" fill="#7D62F5"/>
<path fill-rule="evenodd" clip-rule="evenodd" d="M32.5021 27.0169C32.5021 19.6985 26.5693 13.7661 19.2513 13.7661C18.7025 13.7661 18.1625 13.8033 17.6313 13.8681C16.1157 16.0585 15.2241 18.7129 15.2241 21.5781V27.3941C15.2241 32.0073 17.6845 36.0725 21.3565 38.3465C23.3205 39.5629 25.6305 40.2677 28.0977 40.2677H32.5021V32.3113V27.0169Z" fill="#8B73F5"/>
<path fill-rule="evenodd" clip-rule="evenodd" d="M8.56184 35.0081L16.7766 28.0205L23.7666 34.2469L31.547 22.1125L41.6762 32.1141V28.7413L33.2334 20.4049C32.7158 19.8937 32.0046 19.6469 31.2818 19.7273C30.559 19.8077 29.919 20.2049 29.5266 20.8169L23.2638 30.5845L18.3734 26.2285C17.4838 25.4357 16.129 25.4209 15.2218 26.1925L7.31104 32.9213C7.66424 33.6569 8.08104 34.3569 8.56184 35.0081Z" fill="white"/>
</svg>
