<svg width="48" height="48" viewBox="0 0 48 48" fill="none" xmlns="http://www.w3.org/2000/svg">
<path d="M32.9239 12.9561C29.9239 9.6641 25.6039 7.6001 20.7999 7.6001C11.7439 7.6001 4.3999 14.9441 4.3999 24.0001C4.3999 33.0561 11.7439 40.4001 20.7999 40.4001C25.9239 40.4001 30.4999 38.0481 33.5079 34.3641L20.7999 24.0001L32.9239 12.9561Z" fill="#BEE02D"/>
<path d="M37.1998 24.0003C37.1998 19.7443 35.5798 15.8723 32.9238 12.9563L35.5398 10.5723C38.7678 14.1163 40.7398 18.8283 40.7398 24.0003H37.1998Z" fill="#A6CE00"/>
<path d="M20.7998 24.0001L32.9238 12.9561C35.5798 15.8721 37.1998 19.7441 37.1998 24.0001H20.7998Z" fill="#BEE02D"/>
<path d="M28.8037 16.7079C26.8237 14.5359 23.9717 13.1719 20.7997 13.1719C14.8197 13.1719 9.97168 18.0199 9.97168 23.9999C9.97168 29.9799 14.8197 34.8279 20.7997 34.8279C24.1837 34.8279 27.2037 33.2759 29.1917 30.8439C30.7157 28.9799 31.6277 26.5959 31.6277 23.9999C31.6277 21.1919 30.5597 18.6319 28.8037 16.7079Z" fill="#A6CE00"/>
<path d="M20.7998 24L33.5078 34.364C35.8158 31.54 37.1998 27.932 37.1998 24H20.7998Z" fill="#A6CE00"/>
<path d="M27.4839 25.2003H22.9119C22.2479 25.2003 21.7119 24.6643 21.7119 24.0003C21.7119 23.3363 22.2479 22.8003 22.9119 22.8003H27.4839C28.1479 22.8003 28.6839 23.3363 28.6839 24.0003C28.6839 24.6643 28.1479 25.2003 27.4839 25.2003Z" fill="white"/>
<path d="M20.832 31.9121C16.468 31.9121 12.916 28.3601 12.916 23.9961C12.916 19.6321 16.468 16.0801 20.832 16.0801C22.72 16.0801 24.548 16.7561 25.98 17.9841C26.484 18.4161 26.54 19.1721 26.108 19.6761C25.676 20.1801 24.92 20.2361 24.416 19.8041C23.42 18.9481 22.144 18.4761 20.828 18.4761C17.788 18.4761 15.312 20.9481 15.312 23.9921C15.312 27.0361 17.784 29.5081 20.828 29.5081C22.144 29.5081 23.416 29.0361 24.416 28.1801C24.92 27.7481 25.676 27.8081 26.108 28.3081C26.54 28.8121 26.48 29.5681 25.98 30.0001C24.548 31.2281 22.72 31.9041 20.832 31.9041V31.9121Z" fill="white"/>
<path d="M37.1998 24C37.1998 27.932 35.8158 31.54 33.5078 34.364L38.6718 38.576C41.9158 34.604 43.8638 29.528 43.8638 24H37.1998Z" fill="#BEE02D"/>
</svg>
