<svg width="48" height="48" viewBox="0 0 48 48" fill="none" xmlns="http://www.w3.org/2000/svg">
<path fill-rule="evenodd" clip-rule="evenodd" d="M24.5096 25.9839C28.0224 25.9719 30.8988 23.1487 31.0092 19.6639L30.9904 12.2031L15.8408 12.2371C12.3276 12.2495 9.45122 15.0723 9.34082 18.5575L9.35962 26.0179L24.5096 25.9839Z" fill="#9DD35D"/>
<path fill-rule="evenodd" clip-rule="evenodd" d="M31.0642 39.9399C36.6838 39.9203 41.285 35.4047 41.4614 29.8299L41.4314 17.8955L17.197 17.9499C11.5774 17.9695 6.9762 22.4855 6.7998 28.0599L6.8298 39.9943L31.0642 39.9399Z" fill="#66BA00"/>
<path fill-rule="evenodd" clip-rule="evenodd" d="M25.8836 8.4563L38.6388 8.3999L38.678 19.7695C38.6988 25.6987 33.8648 30.5663 27.9356 30.5867L15.1808 30.6431L15.1412 19.2735C15.1208 13.3447 19.9548 8.4767 25.8836 8.4563Z" fill="#C8E0AB"/>
<path fill-rule="evenodd" clip-rule="evenodd" d="M38.678 19.7699L38.6716 17.9019L17.1968 17.9503C16.5128 17.9527 15.844 18.0227 15.1964 18.1523C15.1588 18.5211 15.14 18.8951 15.1412 19.2735L15.1808 30.6435L27.9356 30.5871C33.8644 30.5663 38.6984 25.6987 38.678 19.7699Z" fill="#9DD35D"/>
<path fill-rule="evenodd" clip-rule="evenodd" d="M21.5691 17.1168H33.5691C34.2319 17.1168 34.7691 16.5796 34.7691 15.9168C34.7691 15.254 34.2319 14.7168 33.5691 14.7168H21.5691C20.9063 14.7168 20.3691 15.254 20.3691 15.9168C20.3691 16.5796 20.9063 17.1168 21.5691 17.1168Z" fill="white"/>
<path fill-rule="evenodd" clip-rule="evenodd" d="M33.5691 20.3071H21.5691C20.9063 20.3071 20.3691 20.8443 20.3691 21.5071C20.3691 22.1699 20.9063 22.7071 21.5691 22.7071H33.5691C34.2319 22.7071 34.7691 22.1699 34.7691 21.5071C34.7691 20.8443 34.2319 20.3071 33.5691 20.3071Z" fill="white"/>
</svg>
