<svg width="48" height="48" viewBox="0 0 48 48" fill="none" xmlns="http://www.w3.org/2000/svg">
<path fill-rule="evenodd" clip-rule="evenodd" d="M33.6827 26.081C33.6895 24.1414 33.2083 22.3094 32.3583 20.6986C30.4303 17.0454 26.5983 14.5338 22.2003 14.5186L17.4795 14.5026L16.9951 14.5006C10.2831 14.4774 4.82307 19.8998 4.79987 26.6114C4.77787 32.9486 9.94467 38.1518 16.2819 38.1738L32.7807 38.231C34.7251 38.231 33.6595 35.7498 33.6595 32.8078L33.6827 26.081Z" fill="#FFBC40"/>
<path fill-rule="evenodd" clip-rule="evenodd" d="M37.8587 22.2565C37.8587 29.2465 32.1923 34.9129 25.2023 34.9129C18.2123 34.9129 12.5459 29.2465 12.5459 22.2565C12.5459 15.2665 18.2123 9.6001 25.2023 9.6001C32.1923 9.6001 37.8587 15.2665 37.8587 22.2565Z" fill="#F9A517"/>
<path fill-rule="evenodd" clip-rule="evenodd" d="M43.1995 29.5419C43.1995 34.6143 39.0875 38.7259 34.0155 38.7259C28.9431 38.7259 24.8311 34.6143 24.8311 29.5419C24.8311 24.4695 28.9431 20.3579 34.0155 20.3579C39.0875 20.3579 43.1995 24.4695 43.1995 29.5419Z" fill="#F9A517"/>
<path fill-rule="evenodd" clip-rule="evenodd" d="M24.8315 29.5419C24.8315 31.5179 25.4575 33.3463 26.5195 34.8447C32.8903 34.1859 37.8591 28.8015 37.8591 22.2563C37.8591 21.8931 37.8399 21.5343 37.8099 21.1787C36.6531 20.6531 35.3691 20.3579 34.0155 20.3579C28.9435 20.3579 24.8315 24.4695 24.8315 29.5419Z" fill="#FFBC40"/>
<path fill-rule="evenodd" clip-rule="evenodd" d="M34.2654 36.7423C30.2954 36.7423 27.0654 33.5123 27.0654 29.5423C27.0654 25.5723 30.2954 22.3423 34.2654 22.3423C34.9282 22.3423 35.4654 22.8795 35.4654 23.5423C35.4654 24.2051 34.9282 24.7423 34.2654 24.7423C31.6186 24.7423 29.4654 26.8955 29.4654 29.5423C29.4654 32.1891 31.6186 34.3423 34.2654 34.3423C36.4986 34.3423 38.3806 32.8091 38.9142 30.7403L36.3006 30.7359C35.6382 30.7347 35.1014 30.1967 35.1026 29.5339C35.1038 28.8719 35.6406 28.3359 36.3026 28.3359H36.3046L41.4654 28.3443V29.5423C41.4654 33.5123 38.2354 36.7423 34.2654 36.7423Z" fill="white"/>
</svg>
