<svg width="121" height="121" viewBox="0 0 121 121" fill="none" xmlns="http://www.w3.org/2000/svg">
<path fill-rule="evenodd" clip-rule="evenodd" d="M61.2745 74.5936C70.0565 74.5636 77.2475 67.5056 77.5235 58.7936L77.4765 40.1416L39.6025 40.2266C30.8195 40.2576 23.6285 47.3146 23.3525 56.0276L23.3995 74.6786L61.2745 74.5936Z" fill="#9DD35D"/>
<path fill-rule="evenodd" clip-rule="evenodd" d="M77.661 109.483C91.71 109.434 103.213 98.1451 103.654 84.2081L103.579 54.3721L42.993 54.5081C28.944 54.5571 17.441 65.8471 17 79.7831L17.075 109.619L77.661 109.483Z" fill="#66BA00"/>
<path fill-rule="evenodd" clip-rule="evenodd" d="M64.7097 30.7738L96.5977 30.6328L96.6957 59.0568C96.7477 73.8798 84.6627 86.0488 69.8397 86.0998L37.9527 86.2408L37.8537 57.8168C37.8027 42.9948 49.8877 30.8248 64.7097 30.7738" fill="#C8E0AB"/>
<path fill-rule="evenodd" clip-rule="evenodd" d="M96.6957 59.0577L96.6796 54.3877L42.9927 54.5087C41.2827 54.5147 39.6107 54.6897 37.9917 55.0137C37.8977 55.9357 37.8507 56.8707 37.8537 57.8167L37.9527 86.2417L69.8397 86.1007C84.6617 86.0487 96.7467 73.8797 96.6957 59.0577" fill="#9DD35D"/>
<path fill-rule="evenodd" clip-rule="evenodd" d="M53.9238 52.4248H83.9238C85.5808 52.4248 86.9238 51.0818 86.9238 49.4248C86.9238 47.7678 85.5808 46.4248 83.9238 46.4248H53.9238C52.2668 46.4248 50.9238 47.7678 50.9238 49.4248C50.9238 51.0818 52.2668 52.4248 53.9238 52.4248" fill="white"/>
<path fill-rule="evenodd" clip-rule="evenodd" d="M83.9238 60.4014H53.9238C52.2668 60.4014 50.9238 61.7444 50.9238 63.4014C50.9238 65.0584 52.2668 66.4014 53.9238 66.4014H83.9238C85.5808 66.4014 86.9238 65.0584 86.9238 63.4014C86.9238 61.7444 85.5808 60.4014 83.9238 60.4014" fill="white"/>
<path fill-rule="evenodd" clip-rule="evenodd" d="M69.7547 37.999H48.5167C41.1267 37.999 35.1357 32.008 35.1357 24.618V24.38C35.1357 16.99 41.1267 10.999 48.5167 10.999H69.7547C77.1447 10.999 83.1357 16.99 83.1357 24.38V24.618C83.1357 32.008 77.1447 37.999 69.7547 37.999" fill="#6B597F"/>
<path fill-rule="evenodd" clip-rule="evenodd" d="M48.1162 25.2022H51.8022C54.9482 25.2022 54.9292 20.5852 51.8022 20.5852H48.1162V25.2022ZM51.8022 27.4542H48.1162V31.2892H45.6582V18.2592C47.7062 18.2592 49.7542 18.2402 51.8022 18.2402C58.1682 18.2402 58.1872 27.4542 51.8022 27.4542V27.4542Z" fill="white"/>
<path fill-rule="evenodd" clip-rule="evenodd" d="M70.1554 21.8513L65.9114 27.5103H65.4274L61.2764 21.8323V31.3083H58.8184V18.2773H61.6484L65.7254 23.8803L69.8014 18.2773H72.6134V31.3083H70.1554V21.8513Z" fill="white"/>
</svg>
