<svg width="121" height="121" viewBox="0 0 121 121" fill="none" xmlns="http://www.w3.org/2000/svg">
<path fill-rule="evenodd" clip-rule="evenodd" d="M101.965 26.917L89.3546 26.961L89.4536 75.895C88.8766 94.112 73.8406 108.869 55.4766 108.933L18.0986 109.067V109.111L68.0866 108.933C86.4496 108.869 101.486 94.112 102.063 75.895L101.965 26.917Z" fill="#36B396"/>
<path fill-rule="evenodd" clip-rule="evenodd" d="M89.453 75.895L89.355 26.96L51.977 27.095C33.613 27.159 18.577 41.916 18 60.133L18.099 109.067L55.476 108.932C73.84 108.869 88.876 94.112 89.453 75.895Z" fill="#1BCCA4"/>
<path fill-rule="evenodd" clip-rule="evenodd" d="M81.168 77.6689H59.418C57.761 77.6689 56.418 76.3259 56.418 74.6689C56.418 73.0119 57.761 71.6689 59.418 71.6689H81.168C82.825 71.6689 84.168 73.0119 84.168 74.6689C84.168 76.3259 82.825 77.6689 81.168 77.6689Z" fill="white"/>
<path fill-rule="evenodd" clip-rule="evenodd" d="M81.168 92.6504H59.418C57.761 92.6504 56.418 91.3074 56.418 89.6504C56.418 87.9934 57.761 86.6504 59.418 86.6504H81.168C82.825 86.6504 84.168 87.9934 84.168 89.6504C84.168 91.3074 82.825 92.6504 81.168 92.6504Z" fill="white"/>
<path fill-rule="evenodd" clip-rule="evenodd" d="M23.751 82.1599C23.751 93.4529 32.906 102.608 44.199 102.608C55.493 102.608 64.648 93.4529 64.648 82.1599C64.648 70.8669 55.493 61.7119 44.199 61.7119C32.906 61.7119 23.751 70.8669 23.751 82.1599Z" fill="#36B396"/>
<path fill-rule="evenodd" clip-rule="evenodd" d="M41.2247 93.1706L31.5177 83.4636C30.3457 82.2926 30.3457 80.3926 31.5177 79.2216C32.6897 78.0496 34.5877 78.0496 35.7597 79.2206L41.2247 84.6856L52.6387 73.2716C53.8107 72.0996 55.7087 72.0996 56.8807 73.2716C58.0527 74.4426 58.0527 76.3426 56.8807 77.5136L41.2247 93.1706Z" fill="white"/>
<path fill-rule="evenodd" clip-rule="evenodd" d="M70.0086 38.999H48.7706C41.3806 38.999 35.3896 33.008 35.3896 25.618V25.38C35.3896 17.99 41.3806 11.999 48.7706 11.999H70.0086C77.3986 11.999 83.3896 17.99 83.3896 25.38V25.618C83.3896 33.008 77.3986 38.999 70.0086 38.999Z" fill="#6B597F"/>
<path fill-rule="evenodd" clip-rule="evenodd" d="M48.547 25.905C48.603 28.046 49.757 30.336 52.829 30.336C55.901 30.336 57.055 28.028 57.092 25.886C57.129 23.69 55.901 21.233 52.829 21.233C49.757 21.233 48.491 23.709 48.547 25.905ZM59.512 25.849C59.475 29.218 57.408 32.588 52.829 32.588C48.249 32.588 46.127 29.293 46.127 25.868C46.127 22.443 48.324 18.999 52.829 18.999C57.316 18.999 59.549 22.443 59.512 25.849Z" fill="white"/>
<path fill-rule="evenodd" clip-rule="evenodd" d="M70.288 22.4055C69.842 21.6605 68.612 20.9535 67.198 20.9535C65.374 20.9535 64.499 21.7165 64.499 22.6845C64.499 23.8205 65.839 24.1365 67.402 24.3225C70.121 24.6575 72.652 25.3655 72.652 28.4745C72.652 31.3785 70.083 32.6255 67.18 32.6255C64.517 32.6255 62.47 31.8065 61.502 29.4235L63.549 28.3625C64.126 29.7955 65.634 30.4285 67.217 30.4285C68.762 30.4285 70.214 29.8885 70.214 28.4745C70.214 27.2455 68.93 26.7425 67.198 26.5565C64.536 26.2405 62.078 25.5325 62.078 22.6105C62.078 19.9295 64.722 18.8315 67.123 18.8125C69.152 18.8125 71.256 19.3895 72.243 21.4005L70.288 22.4055Z" fill="white"/>
</svg>
