<svg width="121" height="121" viewBox="0 0 121 121" fill="none" xmlns="http://www.w3.org/2000/svg">
<path fill-rule="evenodd" clip-rule="evenodd" d="M48.2803 81.9399C48.2803 98.0359 61.3033 111.084 77.3673 111.084C93.4313 111.084 106.454 98.0359 106.454 81.9399C106.454 65.8439 93.4313 52.7959 77.3673 52.7959C61.3033 52.7959 48.2803 65.8439 48.2803 81.9399Z" fill="#3177CF"/>
<path fill-rule="evenodd" clip-rule="evenodd" d="M48.2803 44.7211C48.2803 60.8171 61.3033 73.8651 77.3673 73.8651C93.4313 73.8651 106.454 60.8171 106.454 44.7211C106.454 28.6251 93.4313 15.5771 77.3673 15.5771C61.3033 15.5771 48.2803 28.6251 48.2803 44.7211Z" fill="#3177CF"/>
<path fill-rule="evenodd" clip-rule="evenodd" d="M14 66.1674C14 82.2634 27.023 95.3114 43.087 95.3114C59.151 95.3114 72.174 82.2634 72.174 66.1674C72.174 50.0714 59.151 37.0234 43.087 37.0234C27.023 37.0234 14 50.0714 14 66.1674Z" fill="#3177CF"/>
<path fill-rule="evenodd" clip-rule="evenodd" d="M71.3093 73.2271C64.7963 71.8441 59.0873 68.2801 54.9833 63.3301C50.7983 68.3781 48.2803 74.8641 48.2803 81.9401C48.2803 86.3261 49.2533 90.4831 50.9853 94.2141C60.9803 91.3941 68.7923 83.3621 71.3093 73.2271Z" fill="#0054C5"/>
<path fill-rule="evenodd" clip-rule="evenodd" d="M54.9843 63.3301C58.6963 58.8531 63.7223 55.5141 69.4683 53.8921C65.6663 45.7031 58.1823 39.5801 49.1443 37.6611C48.5833 39.9221 48.2803 42.2861 48.2803 44.7211C48.2803 51.7961 50.7983 58.2821 54.9843 63.3301Z" fill="#0054C5"/>
<path fill-rule="evenodd" clip-rule="evenodd" d="M69.4684 53.8926C63.7224 55.5146 58.6964 58.8526 54.9844 63.3306C59.0884 68.2796 64.7964 71.8436 71.3104 73.2266C71.8714 70.9656 72.1744 68.6026 72.1744 66.1676C72.1744 61.7806 71.2004 57.6246 69.4684 53.8926Z" fill="#3177CF"/>
<path fill-rule="evenodd" clip-rule="evenodd" d="M77.3668 52.7969C74.6278 52.7969 71.9808 53.1849 69.4678 53.8939C71.1998 57.6249 72.1738 61.7819 72.1738 66.1679C72.1738 68.6029 71.8708 70.9669 71.3098 73.2279C73.2638 73.6429 75.2888 73.8649 77.3668 73.8649C86.3688 73.8649 94.4148 69.7659 99.7498 63.3309C94.4148 56.8959 86.3688 52.7969 77.3668 52.7969Z" fill="#0054C5"/>
<path fill-rule="evenodd" clip-rule="evenodd" d="M77.3667 89.0418C73.0067 89.0418 69.4597 85.4848 69.4597 81.1128C69.4597 76.7408 73.0067 73.1848 77.3667 73.1848C81.7267 73.1848 85.2747 76.7408 85.2747 81.1128C85.2747 85.4848 81.7267 89.0418 77.3667 89.0418ZM43.0867 73.2698C38.7257 73.2698 35.1787 69.7128 35.1787 65.3408C35.1787 60.9688 38.7257 57.4128 43.0867 57.4128C47.4467 57.4128 50.9947 60.9688 50.9947 65.3408C50.9947 69.7128 47.4467 73.2698 43.0867 73.2698ZM77.3667 35.9658C81.7267 35.9658 85.2747 39.5218 85.2747 43.8948C85.2747 48.2668 81.7267 51.8228 77.3667 51.8228C73.0067 51.8228 69.4597 48.2668 69.4597 43.8948C69.4597 39.5218 73.0067 35.9658 77.3667 35.9658ZM77.3667 67.1848C72.9617 67.1848 69.0357 69.2518 66.4867 72.4628L56.9237 66.7488C56.9697 66.2858 56.9947 65.8158 56.9947 65.3408C56.9947 63.9568 56.7857 62.6228 56.4087 61.3598L66.9127 53.0508C69.4637 55.9688 73.1987 57.8228 77.3667 57.8228C85.0357 57.8228 91.2747 51.5748 91.2747 43.8948C91.2747 36.2138 85.0357 29.9658 77.3667 29.9658C69.6977 29.9658 63.4597 36.2138 63.4597 43.8948C63.4597 45.2158 63.6557 46.4898 64.0007 47.7028L53.4307 56.0638C50.8827 53.2168 47.1957 51.4128 43.0867 51.4128C35.4177 51.4128 29.1787 57.6608 29.1787 65.3408C29.1787 73.0208 35.4177 79.2698 43.0867 79.2698C48.1137 79.2698 52.5127 76.5758 54.9567 72.5628L63.8537 77.8788C63.6047 78.9188 63.4597 79.9978 63.4597 81.1128C63.4597 88.7928 69.6977 95.0418 77.3667 95.0418C85.0357 95.0418 91.2747 88.7928 91.2747 81.1128C91.2747 73.4328 85.0357 67.1848 77.3667 67.1848Z" fill="white"/>
<path fill-rule="evenodd" clip-rule="evenodd" d="M71.5403 35.229H50.9743C43.8023 35.229 37.9883 29.415 37.9883 22.242V21.986C37.9883 14.814 43.8023 9 50.9743 9H71.5403C78.7123 9 84.5273 14.814 84.5273 21.986V22.242C84.5273 29.415 78.7123 35.229 71.5403 35.229Z" fill="#6B597F"/>
<path fill-rule="evenodd" clip-rule="evenodd" d="M50.6372 19.1101C50.2032 18.3871 49.0122 17.7001 47.6412 17.7001C45.8712 17.7001 45.0232 18.4411 45.0232 19.3811C45.0232 20.4851 46.3232 20.7921 47.8392 20.9721C50.4752 21.2981 52.9292 21.9851 52.9292 25.0051C52.9292 27.8251 50.4392 29.0371 47.6222 29.0371C45.0412 29.0371 43.0562 28.2411 42.1162 25.9271L44.1032 24.8961C44.6622 26.2891 46.1242 26.9031 47.6582 26.9031C49.1572 26.9031 50.5652 26.3791 50.5652 25.0051C50.5652 23.8121 49.3202 23.3231 47.6412 23.1421C45.0592 22.8351 42.6762 22.1481 42.6762 19.3091C42.6762 16.7051 45.2402 15.6381 47.5692 15.6201C49.5352 15.6201 51.5752 16.1811 52.5332 18.1331L50.6372 19.1101Z" fill="white"/>
<path fill-rule="evenodd" clip-rule="evenodd" d="M65.8829 27.1198C64.5829 28.4038 62.9039 28.9998 61.0809 28.9998C56.3879 28.9998 54.4029 25.7638 54.3839 22.4728C54.3659 19.1638 56.5139 15.8008 61.0809 15.8008C62.7959 15.8008 64.4199 16.4518 65.7199 17.7358L64.1319 19.2718C63.3009 18.4588 62.1819 18.0788 61.0809 18.0788C58.0299 18.0788 56.7129 20.3568 56.7309 22.4728C56.7489 24.5708 57.9579 26.7588 61.0809 26.7588C62.1819 26.7588 63.4279 26.3068 64.2579 25.4738L65.8829 27.1198Z" fill="white"/>
<path fill-rule="evenodd" clip-rule="evenodd" d="M73.4309 18.7117L71.0839 24.1007H75.7779L73.4309 18.7117ZM76.7339 26.3247H70.1269L69.0439 28.7117H66.4629L72.1309 16.0537H74.7309L80.3989 28.7117H77.7989L76.7339 26.3247Z" fill="white"/>
</svg>
