<svg width="120" height="120" viewBox="0 0 120 120" fill="none" xmlns="http://www.w3.org/2000/svg">
<path fill-rule="evenodd" clip-rule="evenodd" d="M55.086 24.5246L18.055 24.3936L17.964 51.2126C17.917 64.9416 29.112 76.2146 42.842 76.2626L79.872 76.3936L79.963 49.5756C80.01 35.8456 68.815 24.5736 55.086 24.5246Z" fill="#02BBB6"/>
<path fill-rule="evenodd" clip-rule="evenodd" d="M65.1867 56.2902L102.218 56.1592L102.309 82.9782C102.356 96.7072 91.1607 107.98 77.4317 108.028L40.4007 108.159L40.3097 81.3412C40.2627 67.6112 51.4577 56.3392 65.1867 56.2902Z" fill="#1EBAB6"/>
<path fill-rule="evenodd" clip-rule="evenodd" d="M40.8379 76.1673C41.4999 76.2233 42.1669 76.2603 42.8419 76.2623L79.8719 76.3933L79.9409 56.2383L65.1869 56.2903C53.2299 56.3333 43.1989 64.8893 40.8379 76.1673Z" fill="#02A19B"/>
<path fill-rule="evenodd" clip-rule="evenodd" d="M66.0988 51.7698H34.1608C32.3968 51.7698 30.9668 50.3398 30.9668 48.5758C30.9668 46.8118 32.3968 45.3818 34.1608 45.3818H66.0988C67.8628 45.3818 69.2928 46.8118 69.2928 48.5758C69.2928 50.3398 67.8628 51.7698 66.0988 51.7698Z" fill="white"/>
<path fill-rule="evenodd" clip-rule="evenodd" d="M63.3587 80.9929L40.3857 103.966L40.4007 108.159L45.2427 108.142L67.8757 85.5099C69.1227 84.2629 69.1227 82.2399 67.8757 80.9929C66.6287 79.7459 64.6057 79.7459 63.3587 80.9929Z" fill="white"/>
<path fill-rule="evenodd" clip-rule="evenodd" d="M70.7001 38.8311H49.4621C42.0721 38.8311 36.0811 32.8401 36.0811 25.4501V25.2121C36.0811 17.8221 42.0721 11.8311 49.4621 11.8311H70.7001C78.0901 11.8311 84.0811 17.8221 84.0811 25.2121V25.4501C84.0811 32.8401 78.0901 38.8311 70.7001 38.8311Z" fill="#6B597F"/>
<path fill-rule="evenodd" clip-rule="evenodd" d="M51.3233 32.1218H41.5693V19.0908H51.3233V21.4738H44.0073V24.4708H51.0633V26.7608H44.0073V29.7018H51.3233V32.1218Z" fill="white"/>
<path fill-rule="evenodd" clip-rule="evenodd" d="M62.2128 22.2375C61.7658 21.4925 60.5378 20.7855 59.1228 20.7855C57.2978 20.7855 56.4228 21.5485 56.4228 22.5165C56.4228 23.6525 57.7638 23.9685 59.3278 24.1545C62.0458 24.4895 64.5768 25.1975 64.5768 28.3065C64.5768 31.2105 62.0078 32.4575 59.1038 32.4575C56.4418 32.4575 54.3948 31.6385 53.4258 29.2555L55.4738 28.1945C56.0508 29.6275 57.5588 30.2605 59.1408 30.2605C60.6868 30.2605 62.1388 29.7205 62.1388 28.3065C62.1388 27.0775 60.8538 26.5745 59.1228 26.3885C56.4608 26.0725 54.0038 25.3645 54.0038 22.4425C54.0038 19.7615 56.6468 18.6635 59.0478 18.6445C61.0778 18.6445 63.1808 19.2215 64.1678 21.2325L62.2128 22.2375Z" fill="white"/>
<path fill-rule="evenodd" clip-rule="evenodd" d="M76.7127 22.2738C75.8377 21.4358 74.5347 20.9708 73.3997 20.9708C70.6067 20.9708 68.9127 23.0928 68.9127 25.7738C68.9127 27.9148 70.1597 30.1298 73.3997 30.1298C74.4227 30.1298 75.3167 29.9058 76.3407 29.0868V26.7788H73.0077V24.5828H78.5927V30.0738C77.3087 31.5448 75.6887 32.4198 73.3997 32.4198C68.5037 32.4198 66.5117 29.1988 66.5117 25.7738C66.5117 22.1068 68.8007 18.7178 73.3997 18.7178C75.1497 18.7178 76.8987 19.3888 78.2387 20.7108L76.7127 22.2738Z" fill="white"/>
</svg>
