<svg width="121" height="121" viewBox="0 0 121 121" fill="none" xmlns="http://www.w3.org/2000/svg">
<path fill-rule="evenodd" clip-rule="evenodd" d="M72.0056 27.7334C61.0766 27.7334 51.3606 32.9034 45.1516 40.9264C40.7096 46.6644 38.0596 53.8604 38.0596 61.6794V76.2194C38.0596 87.7524 44.2106 97.9144 53.3906 103.6C58.3006 106.64 64.0756 108.403 70.2436 108.403H104.19V59.9174C104.19 42.2164 89.7066 27.7334 72.0056 27.7334Z" fill="#7D62F5"/>
<path fill-rule="evenodd" clip-rule="evenodd" d="M81.255 75.2754C81.255 56.9794 66.423 42.1484 48.128 42.1484C29.832 42.1484 15 56.9794 15 75.2754C15 77.0354 15.14 78.7624 15.405 80.4484C16.701 90.2084 22.416 98.6204 30.456 103.599C35.366 106.64 41.141 108.402 47.309 108.402H81.255V88.5114C81.255 86.2684 81.021 84.0784 80.579 81.9614C81.021 79.8024 81.255 77.5664 81.255 75.2754Z" fill="#7D62F5"/>
<path fill-rule="evenodd" clip-rule="evenodd" d="M81.2546 75.2754C81.2546 56.9794 66.4226 42.1484 48.1276 42.1484C46.7556 42.1484 45.4056 42.2414 44.0776 42.4034C40.2886 47.8794 38.0596 54.5154 38.0596 61.6784V76.2184C38.0596 87.7514 44.2106 97.9144 53.3906 103.599C58.3006 106.64 64.0756 108.402 70.2436 108.402H81.2546V88.5114V75.2754Z" fill="#8B73F5"/>
<path fill-rule="evenodd" clip-rule="evenodd" d="M21.4043 95.254L41.9413 77.785L59.4163 93.351L78.8673 63.015L104.19 88.019V79.587L83.0833 58.746C81.7893 57.468 80.0113 56.851 78.2043 57.052C76.3973 57.253 74.7973 58.246 73.8163 59.776L58.1593 84.195L45.9333 73.305C43.7093 71.323 40.3223 71.286 38.0543 73.215L18.2773 90.037C19.1603 91.876 20.2023 93.626 21.4043 95.254Z" fill="white"/>
<path fill-rule="evenodd" clip-rule="evenodd" d="M70.2137 38.999H48.9757C41.5857 38.999 35.5947 33.008 35.5947 25.618V25.38C35.5947 17.99 41.5857 11.999 48.9757 11.999H70.2137C77.6037 11.999 83.5947 17.99 83.5947 25.38V25.618C83.5947 33.008 77.6037 38.999 70.2137 38.999Z" fill="#6B597F"/>
<path fill-rule="evenodd" clip-rule="evenodd" d="M55.0624 22.4055C54.6154 21.6605 53.3874 20.9535 51.9724 20.9535C50.1474 20.9535 49.2724 21.7165 49.2724 22.6845C49.2724 23.8205 50.6134 24.1365 52.1774 24.3225C54.8954 24.6575 57.4264 25.3655 57.4264 28.4745C57.4264 31.3785 54.8574 32.6255 51.9534 32.6255C49.2914 32.6255 47.2444 31.8065 46.2754 29.4235L48.3234 28.3625C48.9004 29.7955 50.4084 30.4285 51.9914 30.4285C53.5364 30.4285 54.9884 29.8885 54.9884 28.4745C54.9884 27.2455 53.7034 26.7425 51.9724 26.5565C49.3104 26.2405 46.8534 25.5325 46.8534 22.6105C46.8534 19.9295 49.4964 18.8315 51.8974 18.8125C53.9264 18.8125 56.0304 19.3895 57.0174 21.4005L55.0624 22.4055Z" fill="white"/>
<path fill-rule="evenodd" clip-rule="evenodd" d="M65.728 21.9958L63.308 27.5428H68.148L65.728 21.9958ZM69.135 29.8328H62.321L61.205 32.2898H58.542L64.388 19.2598H67.068L72.914 32.2898H70.233L69.135 29.8328Z" fill="white"/>
</svg>
