<svg width="121" height="121" viewBox="0 0 121 121" fill="none" xmlns="http://www.w3.org/2000/svg">
<path fill-rule="evenodd" clip-rule="evenodd" d="M77.4712 35.5959C67.3092 35.5609 58.3112 40.8219 53.0892 48.7649L42.7422 48.7289C25.8222 48.6699 12.0592 62.3389 12.0002 79.2579C11.9452 95.2329 24.9702 108.349 40.9452 108.404H75.7592H78.8082C94.7832 108.459 107.899 95.4339 107.954 79.4589L108 66.3369C108.059 49.4179 94.3902 35.6549 77.4712 35.5959Z" fill="#B073F5"/>
<path fill-rule="evenodd" clip-rule="evenodd" d="M84.8082 77.9206C84.8632 61.9456 71.8382 48.8296 55.8632 48.7746L53.0892 48.7646C50.1012 53.3086 48.3452 58.7266 48.3252 64.5406V108.404H78.8082C80.8632 108.411 82.8692 108.198 84.8082 107.794V77.9206Z" fill="#A762F5"/>
<path fill-rule="evenodd" clip-rule="evenodd" d="M76.619 39H43.381C35.991 39 30 33.009 30 25.619V25.381C30 17.991 35.991 12 43.381 12H76.619C84.009 12 90 17.991 90 25.381V25.619C90 33.009 84.009 39 76.619 39Z" fill="#6B597F"/>
<path fill-rule="evenodd" clip-rule="evenodd" d="M39.7853 21.4938H35.6523V19.2598H46.3753V21.4938H42.2423V32.2908H39.7853V21.4938Z" fill="white"/>
<path fill-rule="evenodd" clip-rule="evenodd" d="M59.9069 30.652C58.5669 31.974 56.8359 32.588 54.9549 32.588C50.1149 32.588 48.0679 29.256 48.0489 25.868C48.0299 22.461 50.2449 18.999 54.9549 18.999C56.7239 18.999 58.3989 19.669 59.7399 20.99L58.1009 22.573C57.2449 21.735 56.0909 21.344 54.9549 21.344C51.8089 21.344 50.4499 23.69 50.4689 25.868C50.4879 28.027 51.7349 30.279 54.9549 30.279C56.0909 30.279 57.3749 29.814 58.2319 28.958L59.9069 30.652Z" fill="white"/>
<path fill-rule="evenodd" clip-rule="evenodd" d="M61.2646 32.2903V19.2783H70.6286V21.6423H63.7226V25.1983H70.2556V27.4693H63.7226V32.2903H61.2646Z" fill="white"/>
<path fill-rule="evenodd" clip-rule="evenodd" d="M75.1509 29.9258H77.8319C80.7919 29.9258 81.9639 27.7668 81.9089 25.6448C81.8529 23.6148 80.6609 21.5858 77.8319 21.5858H75.1509V29.9258ZM84.3469 25.6628C84.4029 28.9578 82.3929 32.2898 77.8319 32.2898H72.7129V19.2588H77.8319C82.2989 19.2588 84.2919 22.4428 84.3469 25.6628Z" fill="white"/>
<path fill-rule="evenodd" clip-rule="evenodd" d="M69.754 91.8775L69.546 91.8845C68.477 91.9605 67.708 91.4455 67.258 91.0015C66.568 90.3195 66.131 89.3305 66.058 88.2885C65.922 86.3325 67.403 84.6305 69.358 84.4945C70.502 84.4195 71.623 84.8975 72.354 85.7865C73.406 87.0655 75.297 87.2505 76.577 86.1965C77.856 85.1445 78.04 83.2535 76.987 81.9745C75.026 79.5905 72.022 78.2995 68.942 78.5095C63.686 78.8755 59.708 83.4485 60.073 88.7045C60.248 91.2195 61.302 93.5505 63.041 95.2695C64.766 96.9745 66.979 97.8925 69.329 97.8925C69.502 97.8925 69.674 97.8875 69.848 97.8775H101.242C102.76 96.0515 104.057 94.0375 105.097 91.8775H69.754Z" fill="white"/>
<path fill-rule="evenodd" clip-rule="evenodd" d="M89.0288 73.6737C87.9528 73.7487 87.1908 73.2347 86.7408 72.7897C86.0508 72.1077 85.6138 71.1187 85.5408 70.0767C85.4748 69.1297 85.7818 68.2127 86.4048 67.4967C87.0288 66.7797 87.8928 66.3497 88.8408 66.2837C89.9858 66.2057 91.1058 66.6867 91.8358 67.5747C92.8888 68.8557 94.7788 69.0387 96.0588 67.9867C97.3388 66.9337 97.5228 65.0437 96.4698 63.7637C94.5088 61.3797 91.5048 60.0827 88.4248 60.2987C85.8788 60.4747 83.5538 61.6327 81.8788 63.5587C80.2038 65.4847 79.3788 67.9467 79.5558 70.4927C79.9168 75.6837 84.0178 79.6807 88.8378 79.6797C89.0008 79.6797 89.1658 79.6757 89.3298 79.6667H107.949C107.95 79.5977 107.955 79.5287 107.955 79.4597L107.975 73.6667H89.2368L89.0288 73.6737Z" fill="white"/>
</svg>
